{"title":"Asshole.Fever. Shalina. Divine.in. Anytime. Anywhere. By AltriX","uid":7044054,"size":583882208,"categoryP":"video","categoryS":"movies","magnet":"?xt=urn:btih:a898ca75b3db738635ed72f8f4ad31baae272b1d&amp;dn=Asshole.Fever.+Shalina.+Divine.in.+Anytime.+Anywhere.+By+AltriX&amp;tr=udp%3A%2F%2Ftracker.openbittorrent.com%3A80&amp;tr=udp%3A%2F%2Fopen.demonii.com%3A1337&amp;tr=udp%3A%2F%2Ftracker.coppersurfer.tk%3A6969&amp;tr=udp%3A%2F%2Fexodus.desync.com%3A6969","seeders":0,"leechers":1,"uploader":"altrixforce84","files":5,"time":1329663049,"description":"Asshole.Fever. Shalina. Divine.in. Anytime. Anywhere. By AltriX\n________________________________________________________________\n\nFormat                                   : Windows Media\nFile size                                : 556 MiB\nDuration                                 : 25mn 1s\nOverall bit rate mode                    : Constant\nOverall bit rate                         : 3 109 Kbps\nMaximum Overall bit rate                 : 3 123 Kbps\nEncoded date                             : UTC 2011-06-29 05:46:41.893\nCopyright                                : 21sextury.com\n\nVideo\nID                                       : 2\nFormat                                   : VC-1\nFormat profile                           : MP@HL\nCodec ID                                 : WMV3\nCodec ID/Info                            : Windows Media Video 9\nCodec ID/Hint                            : WMV3\nDescription of the codec                 : Windows Media Video 9 - Professional\nDuration                                 : 25mn 1s\nBit rate mode                            : Constant\nBit rate                                 : 3 000 Kbps\nWidth                                    : 960 pixels\nHeight                                   : 540 pixels\nDisplay aspect ratio                     : 16:9\nFrame rate                               : 29.970 fps\nBit depth                                : 8 bits\nScan type                                : Progressive\nCompression mode                         : Lossy\nBits/(Pixel*Frame)                       : 0.193\nStream size                              : 537 MiB (96%)\nLanguage                                 : English (US)\n\nAudio\nID                                       : 1\nFormat                                   : WMA\nFormat version                           : Version 2\nCodec ID                                 : 161\nCodec ID/Info                            : Windows Media Audio\nDescription of the codec                 : Windows Media Audio 9.2 -  96 kbps, 44 kHz, stereo 1-pass CBR\nDuration                                 : 25mn 1s\nBit rate mode                            : Constant\nBit rate                                 : 96.0 Kbps\nChannel(s)                               : 2 channels\nSampling rate                            : 44.1 KHz\nBit depth                                : 16 bits\nStream size                              : 17.2 MiB (3%)\nLanguage                                 : English (US)\n_______________________________________________________________\n\nPOZE DIN FILM\n\n\n\n","torrent":{"xt":"urn:btih:a898ca75b3db738635ed72f8f4ad31baae272b1d","amp;dn":"Asshole.Fever.+Shalina.+Divine.in.+Anytime.+Anywhere.+By+AltriX","amp;tr":["udp%3A%2F%2Ftracker.openbittorrent.com%3A80","udp%3A%2F%2Fopen.demonii.com%3A1337","udp%3A%2F%2Ftracker.coppersurfer.tk%3A6969","udp%3A%2F%2Fexodus.desync.com%3A6969"],"infoHash":"a898ca75b3db738635ed72f8f4ad31baae272b1d","infoHashBuffer":{"type":"Buffer","data":[168,152,202,117,179,219,115,134,53,237,114,248,244,173,49,186,174,39,43,29]},"announce":[],"urlList":[]}}